<?xml version="1.0" encoding="UTF-8" standalone="no"?>
<svg
   xmlns:dc="http://purl.org/dc/elements/1.1/"
   xmlns:cc="http://creativecommons.org/ns#"
   xmlns:rdf="http://www.w3.org/1999/02/22-rdf-syntax-ns#"
   xmlns:svg="http://www.w3.org/2000/svg"
   xmlns="http://www.w3.org/2000/svg"
   xmlns:sodipodi="http://sodipodi.sourceforge.net/DTD/sodipodi-0.dtd"
   xmlns:inkscape="http://www.inkscape.org/namespaces/inkscape"
   inkscape:export-ydpi="48"
   inkscape:export-xdpi="48"
   inkscape:export-filename="/home/rm/doc/misc/2020/09/treatment/whiteKnot.png"
   inkscape:version="1.0 (4035a4fb49, 2020-05-01)"
   sodipodi:docname="knot2.svg"
   id="svg2"
   height="512"
   width="512"
   version="1.1">
  <sodipodi:namedview
     inkscape:current-layer="g816"
     inkscape:window-maximized="1"
     inkscape:window-y="0"
     inkscape:window-x="0"
     inkscape:cy="192.3847"
     inkscape:cx="371.22534"
     inkscape:zoom="1.2655828"
     showgrid="false"
     id="namedview848"
     inkscape:window-height="1028"
     inkscape:window-width="1912"
     inkscape:pageshadow="2"
     inkscape:pageopacity="0"
     guidetolerance="10"
     gridtolerance="10"
     objecttolerance="10"
     borderopacity="1"
     bordercolor="#666666"
     pagecolor="#ffffff"
     inkscape:document-rotation="0" />
  <defs
     id="defs4" />
  <metadata
     id="metadata7">
    <rdf:RDF>
      <cc:Work
         rdf:about="">
        <dc:format>image/svg+xml</dc:format>
        <dc:type
           rdf:resource="http://purl.org/dc/dcmitype/StillImage" />
        <dc:title></dc:title>
      </cc:Work>
    </rdf:RDF>
  </metadata>
  <g
     style="fill:none;stroke:#000000;stroke-width:0.746499"
     id="g816"
     transform="matrix(0,3.763653,-3.7608105,0,506.05058,-0.27894339)">
    <path
       style="stroke-width:0.95900536;stroke-miterlimit:4;stroke-dasharray:none"
       id="path1112"
       d="m 69.984277,1.9379312 -22.625,22.6249998 14.15625,14.125 -5.6875,5.6875 -14.125,-14.15625 -22.625,22.625 14.125,14.15625 -14.125,14.125 22.625,22.656249 14.15625,-14.156249 5.65625,5.65625 -14.15625,14.156249 22.625,22.625 22.65625,-22.625 -14.15625,-14.156249 5.65625,-5.65625 14.15625,14.156249 22.625003,-22.656249 -14.15625,-14.125 14.15625,-14.15625 -22.625003,-22.625 -14.15625,14.15625 -5.65625,-5.65625 14.15625,-14.15625 z m 0.03125,16.9999998 5.625,5.625 -5.65625,5.65625 -5.625,-5.625 z m -28.3125,28.25 5.65625,5.65625 -5.65625,5.65625 -5.65625,-5.65625 z m 28.3125,0 5.65625,5.65625 -5.6875,5.6875 -5.65625,-5.65625 z m 28.25,0 5.687503,5.6875 -5.656253,5.65625 -5.6875,-5.6875 z m -14.125,14.125 5.6875,5.6875 -5.6875,5.6875 -5.6875,-5.6875 z m -28.28125,0.03125 5.65625,5.65625 -5.65625,5.65625 -5.65625,-5.65625 z m 14.125,14.125 5.6875,5.6875 -5.65625,5.65625 -5.6875,-5.6875 z m 28.3125,0 5.656253,5.65625 -5.687503,5.6875 -5.65625,-5.65625 z m -56.59375,0.03125 5.65625,5.65625 -5.625,5.625 -5.65625,-5.65625 z m 28.28125,28.281249 5.65625,5.65625 -5.625,5.625 -5.65625,-5.65625 z" />
    <path
       style="stroke-width:0.37325"
       id="path1114"
       d="m 23.547873,52.853673 11.888233,11.932427 4.043766,-4.043767 -7.88866,-7.88866 10.120466,-10.120466 6.739612,6.739612 3.380854,3.380854 4.02167,4.02167 3.380854,3.380854 4.507806,4.507806 3.999573,-3.999573 -4.507806,-4.507805 -3.380854,-3.380855 -4.02167,-4.021669 -3.380854,-3.380855 -10.739185,-10.783378 z m 28.284271,-28.284271 11.91033,11.91033 4.02167,-4.02167 -7.88866,-7.88866 10.120466,-10.120466 10.120465,10.120466 -6.717514,6.717514 -3.402951,3.402952 -4.02167,4.02167 -3.380855,3.380854 -4.529902,4.529903 4.021669,4.02167 4.529903,-4.529903 3.380855,-3.380855 4.021669,-4.021669 3.402952,-3.402952 L 88.159755,24.569402 69.99595,6.4055966 Z M 23.547873,81.137945 41.689581,99.323847 53.622008,87.39142 49.600338,83.36975 41.733775,91.236313 31.61331,81.115847 l 6.032504,-6.032504 4.043767,-4.043767 4.043767,-4.043767 2.717942,-2.717942 5.170718,-5.170718 -4.02167,-4.02167 -4.331029,4.331029 -3.557631,3.557631 -4.043767,4.043767 -3.204077,3.204078 z m 20.373514,-7.866563 4.507806,4.507805 0.0221,-0.0221 10.805475,10.805476 -0.0221,0.0221 4.507806,4.507806 4.043767,-4.043767 -4.529903,-4.529903 -3.380854,-3.380854 -4.02167,-4.02167 -3.402951,-3.402952 -4.485709,-4.485708 z m 28.306368,-28.306369 4.485709,4.485709 0.0221,-0.0221 10.805476,10.805475 -0.0221,0.0221 4.529903,4.529903 4.02167,-4.02167 -4.529903,-4.529902 -3.380854,-3.380855 -4.02167,-4.02167 -3.402951,-3.402951 -4.485709,-4.485709 z m -14.142135,29.919456 4.021669,4.02167 4.485709,-4.485709 -0.0221,-0.0221 10.805476,-10.805475 0.0221,0.0221 4.529902,-4.529903 -4.021669,-4.02167 -4.529903,4.529903 -3.402952,3.402951 -3.999572,3.999573 -3.402952,3.402951 z m 28.284271,-28.284271 4.02167,4.02167 7.88866,-7.888661 10.120469,10.120466 -6.71752,6.717515 0.0221,0.0221 -10.805476,10.805475 -0.0221,-0.0221 -4.529903,4.529903 4.02167,4.02167 4.529902,-4.529903 3.380855,-3.380854 4.021672,-4.02167 3.40295,-3.402951 10.73919,-10.739185 -18.163812,-18.163805 z m -14.164233,26.626989 4.529903,4.529903 3.380854,3.380855 4.02167,4.021669 3.402952,3.402952 10.761281,10.761281 18.141712,-18.185902 -11.91033,-11.91033 -4.02167,4.02167 7.88866,7.88866 -10.142566,10.142562 -6.717515,-6.717514 -3.402951,-3.402951 -4.02167,-4.02167 -3.380854,-3.380854 -4.529903,-4.529903 z m -20.395611,36.217123 18.163805,18.16381 18.208,-18.16381 -11.932427,-11.932424 -4.043767,4.043764 7.88866,7.88866 -10.076271,10.07627 -10.120466,-10.12046 6.695417,-6.69542 3.380854,-3.380853 4.043767,-4.043767 3.380855,-3.380854 4.507805,-4.507806 -4.021669,-4.02167 -4.507806,4.507806 0.0221,0.0221 -10.783379,10.783379 -0.0221,-0.0221 z" />
    <path
       style="stroke-width:0.746499"
       id="path1116"
       d="m 70.015527,47.187931 8.46875,-8.46875 m -8.5,-8.5 -8.46875,8.46875" />
    <path
       style="stroke-width:0.746499"
       id="path1118"
       d="m 98.296777,75.469181 8.468753,-8.46875 m -8.468753,-8.46875 -8.46875,8.46875" />
    <path
       style="stroke-width:0.746499"
       id="path1120"
       d="m 69.984277,75.469181 8.46875,-8.46875 m -8.46875,-8.46875 -8.46875,8.46875" />
    <path
       style="stroke-width:0.746499"
       id="path1122"
       d="m 84.140527,61.312931 -8.46875,-8.46875 m 8.46875,-8.46875 8.46875,8.46875" />
    <path
       style="stroke-width:0.746499"
       id="path1124"
       d="m 84.140527,89.625431 -8.46875,-8.46875 m 8.46875,-8.46875 8.46875,8.46875" />
    <path
       style="stroke-width:0.746499"
       id="path1126"
       d="m 69.984277,103.78168 8.5,-8.499999 m -8.46875,-8.46875 -8.5,8.46875" />
    <path
       style="stroke-width:0.746499"
       id="path1128"
       d="m 41.703027,75.500431 8.5,-8.5 m -8.5,-8.5 -8.5,8.5" />
    <path
       style="stroke-width:0.746499"
       id="path1130"
       d="m 55.859277,89.625431 -8.5,-8.46875 m 8.5,-8.5 8.46875,8.46875" />
    <path
       style="stroke-width:0.746499"
       id="path1132"
       d="m 55.859277,61.344181 -8.5,-8.5 m 8.46875,-8.46875 8.5,8.5" />
  </g>
</svg>
